<mxfile host="app.diagrams.net" modified="2024-02-27T11:39:17.235Z" agent="Mozilla/5.0 (Windows NT 10.0; Win64; x64) AppleWebKit/537.36 (KHTML, like Gecko) Chrome/121.0.0.0 Safari/537.36" etag="43P3R93YHBvSgZw7_w0Q" version="23.1.7" type="device">
  <diagram name="Página-1" id="gMQc6uj6CABZN7C1PVrU">
    <mxGraphModel dx="1834" dy="738" grid="1" gridSize="10" guides="1" tooltips="1" connect="1" arrows="1" fold="1" page="0" pageScale="1" pageWidth="827" pageHeight="1169" math="0" shadow="0">
      <root>
        <mxCell id="0" />
        <mxCell id="1" parent="0" />
        <mxCell id="5x_3_RDzTdHZbFBe6dnP-2" value="Utilizador (Cliente)" style="shape=umlActor;verticalLabelPosition=bottom;verticalAlign=top;html=1;" parent="1" vertex="1">
          <mxGeometry x="880" y="220" width="30" height="60" as="geometry" />
        </mxCell>
        <mxCell id="5x_3_RDzTdHZbFBe6dnP-15" value="Autenticação Email" style="ellipse;whiteSpace=wrap;html=1;" parent="1" vertex="1">
          <mxGeometry x="520" y="215" width="140" height="70" as="geometry" />
        </mxCell>
        <mxCell id="5x_3_RDzTdHZbFBe6dnP-16" value="Autenticação Gmail" style="ellipse;whiteSpace=wrap;html=1;" parent="1" vertex="1">
          <mxGeometry x="240" y="215" width="140" height="70" as="geometry" />
        </mxCell>
        <mxCell id="5x_3_RDzTdHZbFBe6dnP-18" value="Extend" style="html=1;verticalAlign=bottom;endArrow=open;dashed=1;endSize=8;curved=0;rounded=0;entryX=1;entryY=0.5;entryDx=0;entryDy=0;" parent="1" target="5x_3_RDzTdHZbFBe6dnP-16" edge="1">
          <mxGeometry relative="1" as="geometry">
            <mxPoint x="520" y="249.5" as="sourcePoint" />
            <mxPoint x="440" y="249.5" as="targetPoint" />
          </mxGeometry>
        </mxCell>
        <mxCell id="5x_3_RDzTdHZbFBe6dnP-19" value="Sign-in" style="ellipse;whiteSpace=wrap;html=1;" parent="1" vertex="1">
          <mxGeometry x="520" y="390" width="140" height="70" as="geometry" />
        </mxCell>
        <mxCell id="5x_3_RDzTdHZbFBe6dnP-20" value="Include" style="html=1;verticalAlign=bottom;endArrow=open;dashed=1;endSize=8;curved=0;rounded=0;entryX=0.5;entryY=0;entryDx=0;entryDy=0;" parent="1" target="5x_3_RDzTdHZbFBe6dnP-19" edge="1">
          <mxGeometry relative="1" as="geometry">
            <mxPoint x="590" y="290" as="sourcePoint" />
            <mxPoint x="450" y="330" as="targetPoint" />
          </mxGeometry>
        </mxCell>
        <mxCell id="5x_3_RDzTdHZbFBe6dnP-21" value="Remember Me" style="ellipse;whiteSpace=wrap;html=1;" parent="1" vertex="1">
          <mxGeometry x="520" y="40" width="140" height="70" as="geometry" />
        </mxCell>
        <mxCell id="5x_3_RDzTdHZbFBe6dnP-22" value="Extend" style="html=1;verticalAlign=bottom;endArrow=open;dashed=1;endSize=8;curved=0;rounded=0;entryX=0.5;entryY=1;entryDx=0;entryDy=0;" parent="1" target="5x_3_RDzTdHZbFBe6dnP-21" edge="1">
          <mxGeometry relative="1" as="geometry">
            <mxPoint x="590" y="210" as="sourcePoint" />
            <mxPoint x="370" y="280" as="targetPoint" />
          </mxGeometry>
        </mxCell>
        <mxCell id="5x_3_RDzTdHZbFBe6dnP-24" value="API Google" style="shape=umlActor;verticalLabelPosition=bottom;verticalAlign=top;html=1;" parent="1" vertex="1">
          <mxGeometry y="215" width="30" height="60" as="geometry" />
        </mxCell>
        <mxCell id="5x_3_RDzTdHZbFBe6dnP-26" value="API Goodreads" style="shape=umlActor;verticalLabelPosition=bottom;verticalAlign=top;html=1;" parent="1" vertex="1">
          <mxGeometry x="1120" y="785" width="30" height="60" as="geometry" />
        </mxCell>
        <mxCell id="5x_3_RDzTdHZbFBe6dnP-29" value="Browse" style="ellipse;whiteSpace=wrap;html=1;" parent="1" vertex="1">
          <mxGeometry x="520" y="520" width="140" height="70" as="geometry" />
        </mxCell>
        <mxCell id="5x_3_RDzTdHZbFBe6dnP-30" value="Add to Cart" style="ellipse;whiteSpace=wrap;html=1;" parent="1" vertex="1">
          <mxGeometry x="520" y="900" width="140" height="70" as="geometry" />
        </mxCell>
        <mxCell id="5x_3_RDzTdHZbFBe6dnP-31" value="Checkout" style="ellipse;whiteSpace=wrap;html=1;" parent="1" vertex="1">
          <mxGeometry x="520" y="1030" width="140" height="70" as="geometry" />
        </mxCell>
        <mxCell id="5x_3_RDzTdHZbFBe6dnP-32" value="Payment" style="ellipse;whiteSpace=wrap;html=1;" parent="1" vertex="1">
          <mxGeometry x="520" y="1170" width="140" height="70" as="geometry" />
        </mxCell>
        <mxCell id="5x_3_RDzTdHZbFBe6dnP-33" value="Download" style="ellipse;whiteSpace=wrap;html=1;" parent="1" vertex="1">
          <mxGeometry x="520" y="1320" width="140" height="70" as="geometry" />
        </mxCell>
        <mxCell id="5x_3_RDzTdHZbFBe6dnP-37" value="" style="line;strokeWidth=1;fillColor=none;align=left;verticalAlign=middle;spacingTop=-1;spacingLeft=3;spacingRight=3;rotatable=0;labelPosition=right;points=[];portConstraint=eastwest;strokeColor=inherit;" parent="1" vertex="1">
          <mxGeometry x="660" y="246" width="200" height="8" as="geometry" />
        </mxCell>
        <mxCell id="5x_3_RDzTdHZbFBe6dnP-38" value="Add to Wishlist" style="ellipse;whiteSpace=wrap;html=1;" parent="1" vertex="1">
          <mxGeometry x="520" y="780" width="140" height="70" as="geometry" />
        </mxCell>
        <mxCell id="5x_3_RDzTdHZbFBe6dnP-40" value="API MB/ CC" style="shape=umlActor;verticalLabelPosition=bottom;verticalAlign=top;html=1;" parent="1" vertex="1">
          <mxGeometry x="1000" y="1100" width="30" height="60" as="geometry" />
        </mxCell>
        <mxCell id="5x_3_RDzTdHZbFBe6dnP-42" value="Search" style="ellipse;whiteSpace=wrap;html=1;" parent="1" vertex="1">
          <mxGeometry x="520" y="650" width="140" height="70" as="geometry" />
        </mxCell>
        <mxCell id="5x_3_RDzTdHZbFBe6dnP-43" value="Sincroniza c/ Goodreads" style="ellipse;whiteSpace=wrap;html=1;" parent="1" vertex="1">
          <mxGeometry x="790" y="780" width="140" height="70" as="geometry" />
        </mxCell>
        <mxCell id="5x_3_RDzTdHZbFBe6dnP-44" value="Extend" style="html=1;verticalAlign=bottom;endArrow=open;dashed=1;endSize=8;curved=0;rounded=0;exitX=0;exitY=0.5;exitDx=0;exitDy=0;entryX=1;entryY=0.5;entryDx=0;entryDy=0;" parent="1" source="5x_3_RDzTdHZbFBe6dnP-43" target="5x_3_RDzTdHZbFBe6dnP-38" edge="1">
          <mxGeometry relative="1" as="geometry">
            <mxPoint x="530" y="740" as="sourcePoint" />
            <mxPoint x="450" y="740" as="targetPoint" />
          </mxGeometry>
        </mxCell>
        <mxCell id="5x_3_RDzTdHZbFBe6dnP-45" value="" style="line;strokeWidth=1;fillColor=none;align=left;verticalAlign=middle;spacingTop=-1;spacingLeft=3;spacingRight=3;rotatable=0;labelPosition=right;points=[];portConstraint=eastwest;strokeColor=inherit;" parent="1" vertex="1">
          <mxGeometry x="930" y="811" width="170" height="8" as="geometry" />
        </mxCell>
        <mxCell id="5x_3_RDzTdHZbFBe6dnP-47" value="MB / CC" style="ellipse;whiteSpace=wrap;html=1;" parent="1" vertex="1">
          <mxGeometry x="740" y="1120" width="140" height="70" as="geometry" />
        </mxCell>
        <mxCell id="5x_3_RDzTdHZbFBe6dnP-48" value="Paypal" style="ellipse;whiteSpace=wrap;html=1;" parent="1" vertex="1">
          <mxGeometry x="740" y="1230" width="140" height="70" as="geometry" />
        </mxCell>
        <mxCell id="5x_3_RDzTdHZbFBe6dnP-49" value="API Paypal" style="shape=umlActor;verticalLabelPosition=bottom;verticalAlign=top;html=1;" parent="1" vertex="1">
          <mxGeometry x="1000" y="1240" width="30" height="60" as="geometry" />
        </mxCell>
        <mxCell id="5x_3_RDzTdHZbFBe6dnP-50" value="" style="line;strokeWidth=1;fillColor=none;align=left;verticalAlign=middle;spacingTop=-1;spacingLeft=3;spacingRight=3;rotatable=0;labelPosition=right;points=[];portConstraint=eastwest;strokeColor=inherit;" parent="1" vertex="1">
          <mxGeometry x="880" y="1152" width="90" height="8" as="geometry" />
        </mxCell>
        <mxCell id="5x_3_RDzTdHZbFBe6dnP-51" value="" style="line;strokeWidth=1;fillColor=none;align=left;verticalAlign=middle;spacingTop=-1;spacingLeft=3;spacingRight=3;rotatable=0;labelPosition=right;points=[];portConstraint=eastwest;strokeColor=inherit;" parent="1" vertex="1">
          <mxGeometry x="880" y="1261" width="90" height="8" as="geometry" />
        </mxCell>
        <mxCell id="5x_3_RDzTdHZbFBe6dnP-53" value="" style="endArrow=classic;html=1;rounded=0;entryX=0.9;entryY=0.157;entryDx=0;entryDy=0;entryPerimeter=0;exitX=0;exitY=0.5;exitDx=0;exitDy=0;" parent="1" source="5x_3_RDzTdHZbFBe6dnP-47" target="5x_3_RDzTdHZbFBe6dnP-32" edge="1">
          <mxGeometry width="50" height="50" relative="1" as="geometry">
            <mxPoint x="810" y="1190" as="sourcePoint" />
            <mxPoint x="860" y="1140" as="targetPoint" />
          </mxGeometry>
        </mxCell>
        <mxCell id="5x_3_RDzTdHZbFBe6dnP-54" value="" style="endArrow=classic;html=1;rounded=0;entryX=1;entryY=1;entryDx=0;entryDy=0;exitX=0;exitY=0.5;exitDx=0;exitDy=0;" parent="1" source="5x_3_RDzTdHZbFBe6dnP-48" target="5x_3_RDzTdHZbFBe6dnP-32" edge="1">
          <mxGeometry width="50" height="50" relative="1" as="geometry">
            <mxPoint x="810" y="1190" as="sourcePoint" />
            <mxPoint x="860" y="1140" as="targetPoint" />
          </mxGeometry>
        </mxCell>
        <mxCell id="5x_3_RDzTdHZbFBe6dnP-55" value="Filtrar" style="ellipse;whiteSpace=wrap;html=1;" parent="1" vertex="1">
          <mxGeometry x="260" y="650" width="140" height="70" as="geometry" />
        </mxCell>
        <mxCell id="5x_3_RDzTdHZbFBe6dnP-56" value="Extend" style="html=1;verticalAlign=bottom;endArrow=open;dashed=1;endSize=8;curved=0;rounded=0;entryX=0;entryY=0.5;entryDx=0;entryDy=0;exitX=1;exitY=0.5;exitDx=0;exitDy=0;" parent="1" source="5x_3_RDzTdHZbFBe6dnP-55" target="5x_3_RDzTdHZbFBe6dnP-42" edge="1">
          <mxGeometry relative="1" as="geometry">
            <mxPoint x="470" y="620" as="sourcePoint" />
            <mxPoint x="520" y="580" as="targetPoint" />
          </mxGeometry>
        </mxCell>
        <mxCell id="5x_3_RDzTdHZbFBe6dnP-58" value="Check Cart" style="ellipse;whiteSpace=wrap;html=1;" parent="1" vertex="1">
          <mxGeometry x="260" y="900" width="140" height="70" as="geometry" />
        </mxCell>
        <mxCell id="5x_3_RDzTdHZbFBe6dnP-59" value="Extend" style="html=1;verticalAlign=bottom;endArrow=open;dashed=1;endSize=8;curved=0;rounded=0;entryX=1;entryY=0.5;entryDx=0;entryDy=0;exitX=0;exitY=0.5;exitDx=0;exitDy=0;" parent="1" edge="1">
          <mxGeometry relative="1" as="geometry">
            <mxPoint x="520" y="934.5" as="sourcePoint" />
            <mxPoint x="400" y="934.5" as="targetPoint" />
          </mxGeometry>
        </mxCell>
        <mxCell id="5x_3_RDzTdHZbFBe6dnP-61" value="API Proteção Anti Cópia" style="shape=umlActor;verticalLabelPosition=bottom;verticalAlign=top;html=1;" parent="1" vertex="1">
          <mxGeometry x="-160" y="420" width="30" height="60" as="geometry" />
        </mxCell>
        <mxCell id="5x_3_RDzTdHZbFBe6dnP-65" value="Remover item" style="ellipse;whiteSpace=wrap;html=1;" parent="1" vertex="1">
          <mxGeometry x="260" y="1060" width="140" height="70" as="geometry" />
        </mxCell>
        <mxCell id="5x_3_RDzTdHZbFBe6dnP-66" value="Extend" style="html=1;verticalAlign=bottom;endArrow=open;dashed=1;endSize=8;curved=0;rounded=0;entryX=0.5;entryY=1;entryDx=0;entryDy=0;" parent="1" target="5x_3_RDzTdHZbFBe6dnP-58" edge="1">
          <mxGeometry relative="1" as="geometry">
            <mxPoint x="330" y="1060" as="sourcePoint" />
            <mxPoint x="410" y="944.5" as="targetPoint" />
          </mxGeometry>
        </mxCell>
        <mxCell id="5x_3_RDzTdHZbFBe6dnP-67" value="Extend" style="html=1;verticalAlign=bottom;endArrow=open;dashed=1;endSize=8;curved=0;rounded=0;exitX=0.5;exitY=1;exitDx=0;exitDy=0;entryX=0.5;entryY=0;entryDx=0;entryDy=0;" parent="1" source="5x_3_RDzTdHZbFBe6dnP-30" target="5x_3_RDzTdHZbFBe6dnP-31" edge="1">
          <mxGeometry relative="1" as="geometry">
            <mxPoint x="610" y="1120" as="sourcePoint" />
            <mxPoint x="530" y="1120" as="targetPoint" />
          </mxGeometry>
        </mxCell>
        <mxCell id="5x_3_RDzTdHZbFBe6dnP-69" value="Includes" style="html=1;verticalAlign=bottom;endArrow=open;dashed=1;endSize=8;curved=0;rounded=0;exitX=0.5;exitY=0;exitDx=0;exitDy=0;entryX=0.5;entryY=1;entryDx=0;entryDy=0;" parent="1" source="5x_3_RDzTdHZbFBe6dnP-32" target="5x_3_RDzTdHZbFBe6dnP-31" edge="1">
          <mxGeometry relative="1" as="geometry">
            <mxPoint x="589.62" y="1100" as="sourcePoint" />
            <mxPoint x="500" y="1150" as="targetPoint" />
          </mxGeometry>
        </mxCell>
        <mxCell id="5x_3_RDzTdHZbFBe6dnP-71" value="Includes" style="html=1;verticalAlign=bottom;endArrow=open;dashed=1;endSize=8;curved=0;rounded=0;exitX=0.5;exitY=0;exitDx=0;exitDy=0;entryX=0.5;entryY=1;entryDx=0;entryDy=0;" parent="1" source="5x_3_RDzTdHZbFBe6dnP-33" target="5x_3_RDzTdHZbFBe6dnP-32" edge="1">
          <mxGeometry relative="1" as="geometry">
            <mxPoint x="589.73" y="1240" as="sourcePoint" />
            <mxPoint x="490" y="1280" as="targetPoint" />
          </mxGeometry>
        </mxCell>
        <mxCell id="5x_3_RDzTdHZbFBe6dnP-72" value="" style="line;strokeWidth=1;fillColor=none;align=left;verticalAlign=middle;spacingTop=-1;spacingLeft=3;spacingRight=3;rotatable=0;labelPosition=right;points=[];portConstraint=eastwest;strokeColor=inherit;" parent="1" vertex="1">
          <mxGeometry x="40" y="246" width="200" height="8" as="geometry" />
        </mxCell>
      </root>
    </mxGraphModel>
  </diagram>
</mxfile>
